<svg id="Lager_1" data-name="Lager 1" xmlns="http://www.w3.org/2000/svg" viewBox="0 0 785.61 198.39"><defs><style>.cls-1{fill:#fff;}</style></defs><title>NTI Gymnasiet_Umeå_print_vit</title><path class="cls-1" d="M144.67,120.75V62.4H126.52V47.91h50.9V62.4H159.26v58.35Z" transform="translate(0.28 -0.3)"/><path class="cls-1" d="M71.13,120.75H56.55V46.28h3.87L97.25,89.12V47.91h14.68v74.37h-3.87L71.13,81.07Z" transform="translate(0.28 -0.3)"/><path class="cls-1" d="M192,120.75V47.91h14.59v72.84Z" transform="translate(0.28 -0.3)"/><path class="cls-1" d="M264,87.58h14.78v28.34a31.68,31.68,0,0,1-5.89,1c-2.3.21-4.56.31-6.71.31A48.26,48.26,0,0,1,254,115.94a15.41,15.41,0,0,1-7.77-4.55,19.69,19.69,0,0,1-4.23-8.76,63.08,63.08,0,0,1-1.3-14V80.92A67,67,0,0,1,242,66.41a19.49,19.49,0,0,1,4.27-9,16.14,16.14,0,0,1,7.88-4.6,47.72,47.72,0,0,1,12.32-1.36,46.91,46.91,0,0,1,7.39.55,42.41,42.41,0,0,1,5.87,1.36l.37.12,1.22-4.16-.33-.12a46.87,46.87,0,0,0-6.34-1.58,42.22,42.22,0,0,0-8-.77c-6.23,0-11.39.72-15.33,2.15a21.46,21.46,0,0,0-9.49,6.45A24.11,24.11,0,0,0,237,66.1a73.57,73.57,0,0,0-1.27,14.42v8.11a96.26,96.26,0,0,0,.87,13.53,23.51,23.51,0,0,0,4,10.56,19.89,19.89,0,0,0,9.29,6.77c4,1.57,9.56,2.36,16.41,2.36,1.08,0,2.4-.07,3.93-.21s3.08-.3,4.58-.5,3-.46,4.49-.77a22.65,22.65,0,0,0,3.76-1.08l.24-.1V83H264.93Z" transform="translate(0.28 -0.3)"/><polygon class="cls-1" points="321.07 85.66 298.98 47.79 298.87 47.6 293.64 47.6 318.66 89.85 318.66 120.53 323.36 120.53 323.36 89.75 348.9 47.6 343.66 47.6 321.07 85.66"/><polygon class="cls-1" points="392.83 96.01 368.33 47.8 368.23 47.6 363.57 47.6 363.57 120.53 368.07 120.53 368.07 57.63 390.48 101.17 390.58 101.37 394.89 101.37 417.3 56.76 417.3 120.53 421.8 120.53 421.8 47.6 417.04 47.6 392.83 96.01"/><polygon class="cls-1" points="489.38 112.64 449.63 47.78 449.51 47.6 444.57 47.6 444.57 120.53 449.07 120.53 449.07 55.69 488.94 120.53 493.88 120.53 493.88 47.6 489.38 47.6 489.38 112.64"/><path class="cls-1" d="M541,47.9h-5.8l-26.73,72.94h4.75l8.41-23.22H554.3l8.42,23,.1.25h5L541.13,48.15ZM552.61,93H523.37l14.57-40Z" transform="translate(0.28 -0.3)"/><path class="cls-1" d="M622.32,88.24a15.94,15.94,0,0,0-5.19-4.15A25.46,25.46,0,0,0,609,81.67l-9.73-1.42a35.77,35.77,0,0,1-6.77-1.56,10.68,10.68,0,0,1-4.17-2.54,8.89,8.89,0,0,1-2.18-4,25.09,25.09,0,0,1-.65-6.19,16.34,16.34,0,0,1,1.28-6.84,10.75,10.75,0,0,1,3.73-4.41,17,17,0,0,1,6.15-2.43,43.62,43.62,0,0,1,8.44-.75,53.37,53.37,0,0,1,9.46.76,49.22,49.22,0,0,1,7.54,2l.37.13,1.34-4.16-.33-.12a59.89,59.89,0,0,0-7.5-2.2,46.2,46.2,0,0,0-10.07-1c-8.23,0-14.53,1.61-18.73,4.79s-6.38,7.79-6.38,13.63v1a28.81,28.81,0,0,0,.92,7.76,13.18,13.18,0,0,0,3,5.48,14.93,14.93,0,0,0,5.36,3.49,33.14,33.14,0,0,0,7.84,1.89l9.43,1.32a23.27,23.27,0,0,1,7.18,1.94,11.17,11.17,0,0,1,4.07,3.24,10.22,10.22,0,0,1,1.86,4.4,32.19,32.19,0,0,1,.45,5.56,20.61,20.61,0,0,1-1,6.77,11.82,11.82,0,0,1-3.29,5,14.87,14.87,0,0,1-6,3.07,35.38,35.38,0,0,1-9.27,1,74.54,74.54,0,0,1-10.29-.61,56.85,56.85,0,0,1-8.76-2l-.4-.13-.85,4.28.3.11a49.48,49.48,0,0,0,8.58,2.14,64.65,64.65,0,0,0,10.71.82A39.85,39.85,0,0,0,612,120.41a21,21,0,0,0,7.84-4.08A15.59,15.59,0,0,0,624.3,110a22.88,22.88,0,0,0,1.4-8.19v-1.32a29.52,29.52,0,0,0-.72-6.62A14.09,14.09,0,0,0,622.32,88.24Z" transform="translate(0.28 -0.3)"/><rect class="cls-1" x="645.09" y="47.6" width="4.7" height="72.93"/><polygon class="cls-1" points="714.1 52.1 715.07 47.6 672.57 47.6 672.57 120.53 714.1 120.53 715.07 116.03 677.27 116.03 677.27 84.75 710.55 84.75 711.52 80.24 677.27 80.24 677.27 52.1 714.1 52.1"/><polygon class="cls-1" points="755.74 120.53 755.74 52.1 780.7 52.1 781.67 47.6 726.47 47.6 725.5 52.1 751.03 52.1 751.03 120.53 755.74 120.53"/><path class="cls-1" d="M656.44,182.21a33.32,33.32,0,0,1-.57,6.79,8.94,8.94,0,0,1-1.86,4.08,6.77,6.77,0,0,1-3.41,2,21.56,21.56,0,0,1-5.55.6,17.43,17.43,0,0,1-5.06-.65,7.11,7.11,0,0,1-3.37-2.16,9.91,9.91,0,0,1-2-4.12,28.43,28.43,0,0,1-.65-6.64V157.3h-3V182a33.61,33.61,0,0,0,.68,7.14,13.05,13.05,0,0,0,2.34,5.25,10.16,10.16,0,0,0,4.42,3.2,18.92,18.92,0,0,0,6.76,1.06,19.88,19.88,0,0,0,7.1-1.09,9.87,9.87,0,0,0,4.42-3.26,12.89,12.89,0,0,0,2.2-5.25,37.38,37.38,0,0,0,.59-7V157.3h-3Z" transform="translate(0.28 -0.3)"/><polygon class="cls-1" points="689.87 183.36 676.48 157 673.56 157 673.56 197.55 676.47 197.55 676.47 163.64 688.5 187.01 691.14 187.01 703.11 163.18 703.11 197.55 706.02 197.55 706.02 157 703.05 157 689.87 183.36"/><polygon class="cls-1" points="743.58 159.91 744.21 157 720.34 157 720.34 197.55 743.58 197.55 744.21 194.64 723.37 194.64 723.37 177.87 741.63 177.87 742.26 174.95 723.37 174.95 723.37 159.91 743.58 159.91"/><path class="cls-1" d="M771.1,159.14a5.55,5.55,0,0,0,2.32-1.89,5.79,5.79,0,0,0,.57-5.52,5.92,5.92,0,0,0-1.24-1.83,5.73,5.73,0,0,0-1.83-1.23,6.18,6.18,0,0,0-4.63,0,5.73,5.73,0,0,0-3.06,3.06,5.68,5.68,0,0,0,3,7.47l-14.17,38.65h3.08l4.63-12.77H777.4l4.68,12.77h3.25Zm-4.69-2.9a3.62,3.62,0,0,1,0-4.61,3.15,3.15,0,0,1,4.39,0,3.58,3.58,0,0,1,0,4.61,3.13,3.13,0,0,1-4.39,0Zm9.9,25.88H760.85l7.7-21.15Z" transform="translate(0.28 -0.3)"/><path class="cls-1" d="M78.43,14.9V.3H-.28V82c0,55.72,28.21,73.53,74.23,98l4.48,2.37V165.85l-.56-.29C36.11,143.25,14.31,129.4,14.31,82V14.9Z" transform="translate(0.28 -0.3)"/></svg>